<svg width="19" height="19" viewBox="0 0 19 19" fill="none" xmlns="http://www.w3.org/2000/svg">
<rect width="19" height="19" fill="#E5E5E5"/>
<g id="Usuarios" clip-path="url(#clip0_0_1)">
<rect width="1440" height="1024" transform="translate(-122 -676)" fill="white"/>
<g id="Group 171">
<rect id="Rectangle 4" x="-19.5" y="-158.5" width="380" height="273" rx="3.5" fill="white" stroke="#E5E5E5"/>
<g id="gift 1" clip-path="url(#clip1_0_1)">
<g id="Group">
<path id="Vector" d="M15.8337 9.5V17.4167H3.16699V9.5" stroke="#212121" stroke-width="1.58" stroke-linecap="round" stroke-linejoin="round"/>
<path id="Vector_2" d="M1.5835 5.54166H17.4168V9.49999H1.5835V5.54166Z" stroke="#212121" stroke-width="1.58" stroke-linecap="round" stroke-linejoin="round"/>
<path id="Vector_3" d="M9.5 17.4167V5.54166" stroke="#212121" stroke-width="1.58" stroke-linecap="round" stroke-linejoin="round"/>
<path id="Vector_4" d="M9.50016 5.54166H5.93766C5.41276 5.54166 4.90935 5.33314 4.53818 4.96198C4.16701 4.59081 3.9585 4.0874 3.9585 3.56249C3.9585 3.03759 4.16701 2.53418 4.53818 2.16301C4.90935 1.79185 5.41276 1.58333 5.93766 1.58333C8.7085 1.58333 9.50016 5.54166 9.50016 5.54166Z" stroke="#212121" stroke-width="1.58" stroke-linecap="round" stroke-linejoin="round"/>
<path id="Vector_5" d="M9.5 5.54166H13.0625C13.5874 5.54166 14.0908 5.33314 14.462 4.96198C14.8331 4.59081 15.0417 4.0874 15.0417 3.56249C15.0417 3.03759 14.8331 2.53418 14.462 2.16301C14.0908 1.79185 13.5874 1.58333 13.0625 1.58333C10.2917 1.58333 9.5 5.54166 9.5 5.54166Z" stroke="#212121" stroke-width="1.58" stroke-linecap="round" stroke-linejoin="round"/>
</g>
</g>
</g>
</g>
<defs>
<clipPath id="clip0_0_1">
<rect width="1440" height="1024" fill="white" transform="translate(-122 -676)"/>
</clipPath>
<clipPath id="clip1_0_1">
<rect width="19" height="19" fill="white"/>
</clipPath>
</defs>
</svg>
